<svg width="146" height="38" viewBox="0 0 146 38" fill="none" xmlns="http://www.w3.org/2000/svg">
<path d="M36.1501 31V4.88909H46.5038C48.2687 4.88909 49.7133 5.2457 50.8375 5.95891C51.9738 6.66004 52.814 7.56062 53.3579 8.66066C53.914 9.76071 54.192 10.897 54.192 12.0696C54.192 13.5081 53.8475 14.729 53.1585 15.7324C52.4815 16.7357 51.5568 17.4127 50.3842 17.7632V16.8566C52.0282 17.2313 53.2733 18.011 54.1195 19.1957C54.9778 20.3804 55.4069 21.7282 55.4069 23.2393C55.4069 24.7866 55.1108 26.1405 54.5184 27.301C53.9261 28.4614 53.0437 29.3681 51.8711 30.0208C50.7106 30.6736 49.2721 31 47.5555 31H36.1501ZM40.5745 26.8839H47.0115C47.7731 26.8839 48.4561 26.7328 49.0605 26.4306C49.6649 26.1163 50.1364 25.6811 50.4749 25.125C50.8254 24.5569 51.0007 23.886 51.0007 23.1123C51.0007 22.4112 50.8496 21.7826 50.5474 21.2265C50.2452 20.6705 49.804 20.2292 49.2237 19.9029C48.6435 19.5644 47.9484 19.3952 47.1385 19.3952H40.5745V26.8839ZM40.5745 15.3153H46.4494C47.078 15.3153 47.6401 15.1944 48.1358 14.9527C48.6314 14.7109 49.0243 14.3543 49.3144 13.8828C49.6045 13.4114 49.7496 12.8312 49.7496 12.1421C49.7496 11.2355 49.4594 10.48 48.8792 9.87555C48.299 9.27113 47.489 8.96892 46.4494 8.96892H40.5745V15.3153ZM67.6776 31.544C65.7193 31.544 64.0088 31.1028 62.5461 30.2203C61.0834 29.3378 59.9471 28.123 59.1371 26.5757C58.3393 25.0162 57.9404 23.2272 57.9404 21.2084C57.9404 19.1534 58.3514 17.3522 59.1734 15.8049C59.9954 14.2576 61.1378 13.0487 62.6005 12.1784C64.0632 11.308 65.7555 10.8728 67.6776 10.8728C69.648 10.8728 71.3645 11.3141 72.8272 12.1965C74.2899 13.079 75.4262 14.2999 76.2362 15.8593C77.0461 17.4066 77.451 19.1896 77.451 21.2084C77.451 23.2393 77.04 25.0344 76.218 26.5938C75.4081 28.1411 74.2718 29.356 72.8091 30.2384C71.3464 31.1088 69.6359 31.544 67.6776 31.544ZM67.6776 27.446C69.4183 27.446 70.7118 26.8658 71.558 25.7053C72.4041 24.5448 72.8272 23.0458 72.8272 21.2084C72.8272 19.3105 72.3981 17.7995 71.5398 16.6753C70.6815 15.539 69.3941 14.9708 67.6776 14.9708C66.505 14.9708 65.5379 15.2367 64.7764 15.7686C64.0269 16.2884 63.4708 17.0198 63.1082 17.9627C62.7455 18.8935 62.5642 19.9754 62.5642 21.2084C62.5642 23.1063 62.9933 24.6234 63.8516 25.7597C64.722 26.8839 65.9973 27.446 67.6776 27.446ZM81.8088 31V4.34511H86.1788V31H81.8088ZM99.4617 31.544C97.6606 31.544 96.0891 31.0907 94.7473 30.184C93.4054 29.2774 92.3658 28.0444 91.6285 26.485C90.8911 24.9256 90.5224 23.1667 90.5224 21.2084C90.5224 19.2259 90.8911 17.461 91.6285 15.9137C92.3779 14.3543 93.4357 13.1273 94.8017 12.2328C96.1676 11.3262 97.7754 10.8728 99.6249 10.8728C101.487 10.8728 103.046 11.3262 104.303 12.2328C105.572 13.1273 106.533 14.3543 107.186 15.9137C107.839 17.4731 108.165 19.238 108.165 21.2084C108.165 23.1546 107.839 24.9135 107.186 26.485C106.533 28.0444 105.56 29.2774 104.267 30.184C102.973 31.0907 101.372 31.544 99.4617 31.544ZM100.133 27.6273C101.305 27.6273 102.248 27.3614 102.961 26.8295C103.687 26.2855 104.212 25.53 104.539 24.5629C104.877 23.5959 105.047 22.4777 105.047 21.2084C105.047 19.927 104.877 18.8089 104.539 17.8539C104.212 16.8868 103.699 16.1373 102.998 15.6054C102.296 15.0615 101.39 14.7895 100.278 14.7895C99.1051 14.7895 98.138 15.0796 97.3765 15.6598C96.6149 16.228 96.0528 17.0017 95.6901 17.9808C95.3275 18.9479 95.1462 20.0237 95.1462 21.2084C95.1462 22.4052 95.3215 23.4931 95.672 24.4723C96.0347 25.4393 96.5847 26.207 97.3221 26.7751C98.0595 27.3433 98.9963 27.6273 100.133 27.6273ZM105.047 31V17.2555H104.503V4.88909H108.909V31H105.047ZM122.642 31.544C120.684 31.544 118.973 31.1028 117.51 30.2203C116.048 29.3378 114.911 28.123 114.102 26.5757C113.304 25.0162 112.905 23.2272 112.905 21.2084C112.905 19.1534 113.316 17.3522 114.138 15.8049C114.96 14.2576 116.102 13.0487 117.565 12.1784C119.028 11.308 120.72 10.8728 122.642 10.8728C124.612 10.8728 126.329 11.3141 127.792 12.1965C129.254 13.079 130.391 14.2999 131.201 15.8593C132.01 17.4066 132.415 19.1896 132.415 21.2084C132.415 23.2393 132.004 25.0344 131.182 26.5938C130.372 28.1411 129.236 29.356 127.773 30.2384C126.311 31.1088 124.6 31.544 122.642 31.544ZM122.642 27.446C124.383 27.446 125.676 26.8658 126.522 25.7053C127.369 24.5448 127.792 23.0458 127.792 21.2084C127.792 19.3105 127.362 17.7995 126.504 16.6753C125.646 15.539 124.359 14.9708 122.642 14.9708C121.469 14.9708 120.502 15.2367 119.741 15.7686C118.991 16.2884 118.435 17.0198 118.073 17.9627C117.71 18.8935 117.529 19.9754 117.529 21.2084C117.529 23.1063 117.958 24.6234 118.816 25.7597C119.686 26.8839 120.962 27.446 122.642 27.446Z" fill="#0A2640"/>
<path d="M0.382324 17.0001H14.6999C19.5833 17.0001 23.542 20.9588 23.542 25.8422C23.542 30.7256 19.5833 34.6843 14.6999 34.6843H0.382324V17.0001Z" fill="#0A2640"/>
<path d="M0.382324 1.52637H9.86186C13.5244 1.52637 16.4934 4.49543 16.4934 8.15794C16.4934 11.8205 13.5244 14.7895 9.86186 14.7895H0.382324V1.52637Z" fill="#0A2640"/>
</svg>
