<svg width="97" height="28" viewBox="0 0 97 28" fill="none" xmlns="http://www.w3.org/2000/svg">
<path d="M0.532457 27V0.88909H10.8862C12.6511 0.88909 14.0956 1.2457 15.2198 1.95891C16.3562 2.66004 17.1963 3.56062 17.7403 4.66066C18.2963 5.76071 18.5744 6.89702 18.5744 8.06959C18.5744 9.50811 18.2299 10.729 17.5408 11.7324C16.8639 12.7357 15.9391 13.4127 14.7665 13.7632V12.8566C16.4106 13.2313 17.6557 14.011 18.5018 15.1957C19.3601 16.3804 19.7893 17.7282 19.7893 19.2393C19.7893 20.7866 19.4931 22.1405 18.9008 23.301C18.3084 24.4614 17.426 25.3681 16.2534 26.0208C15.0929 26.6736 13.6544 27 11.9378 27H0.532457ZM4.95681 22.8839H11.3939C12.1554 22.8839 12.8384 22.7328 13.4429 22.4306C14.0473 22.1163 14.5187 21.6811 14.8572 21.125C15.2078 20.5569 15.383 19.886 15.383 19.1123C15.383 18.4112 15.2319 17.7826 14.9297 17.2265C14.6275 16.6705 14.1863 16.2292 13.606 15.9029C13.0258 15.5644 12.3307 15.3952 11.5208 15.3952H4.95681V22.8839ZM4.95681 11.3153H10.8318C11.4604 11.3153 12.0225 11.1944 12.5181 10.9527C13.0137 10.7109 13.4066 10.3543 13.6967 9.88285C13.9868 9.4114 14.1319 8.83116 14.1319 8.14212C14.1319 7.23549 13.8418 6.47997 13.2615 5.87555C12.6813 5.27113 11.8714 4.96892 10.8318 4.96892H4.95681V11.3153ZM32.0599 27.544C30.1016 27.544 28.3911 27.1028 26.9284 26.2203C25.4657 25.3378 24.3294 24.123 23.5195 22.5757C22.7216 21.0162 22.3227 19.2272 22.3227 17.2084C22.3227 15.1534 22.7337 13.3522 23.5557 11.8049C24.3777 10.2576 25.5201 9.04875 26.9828 8.17838C28.4455 7.30802 30.1379 6.87284 32.0599 6.87284C34.0303 6.87284 35.7469 7.31407 37.2096 8.19652C38.6723 9.07897 39.8086 10.2999 40.6185 11.8593C41.4284 13.4066 41.8334 15.1896 41.8334 17.2084C41.8334 19.2393 41.4224 21.0344 40.6004 22.5938C39.7904 24.1411 38.6541 25.356 37.1914 26.2384C35.7287 27.1088 34.0182 27.544 32.0599 27.544ZM32.0599 23.446C33.8006 23.446 35.0941 22.8658 35.9403 21.7053C36.7865 20.5448 37.2096 19.0458 37.2096 17.2084C37.2096 15.3105 36.7804 13.7995 35.9221 12.6753C35.0639 11.539 33.7765 10.9708 32.0599 10.9708C30.8873 10.9708 29.9203 11.2367 29.1587 11.7686C28.4092 12.2884 27.8532 13.0198 27.4905 13.9627C27.1278 14.8935 26.9465 15.9754 26.9465 17.2084C26.9465 19.1063 27.3757 20.6234 28.2339 21.7597C29.1043 22.8839 30.3796 23.446 32.0599 23.446ZM46.1911 27V0.345113H50.5611V27H46.1911ZM63.844 27.544C62.0429 27.544 60.4714 27.0907 59.1296 26.184C57.7878 25.2774 56.7482 24.0444 56.0108 22.485C55.2734 20.9256 54.9047 19.1667 54.9047 17.2084C54.9047 15.2259 55.2734 13.461 56.0108 11.9137C56.7603 10.3543 57.818 9.12732 59.184 8.23278C60.55 7.32615 62.1577 6.87284 64.0072 6.87284C65.8689 6.87284 67.4283 7.32615 68.6854 8.23278C69.9547 9.12732 70.9158 10.3543 71.5685 11.9137C72.2213 13.4731 72.5477 15.238 72.5477 17.2084C72.5477 19.1546 72.2213 20.9135 71.5685 22.485C70.9158 24.0444 69.9426 25.2774 68.6492 26.184C67.3557 27.0907 65.754 27.544 63.844 27.544ZM64.515 23.6273C65.6875 23.6273 66.6304 23.3614 67.3436 22.8295C68.0689 22.2855 68.5948 21.53 68.9212 20.5629C69.2596 19.5959 69.4289 18.4777 69.4289 17.2084C69.4289 15.927 69.2596 14.8089 68.9212 13.8539C68.5948 12.8868 68.081 12.1373 67.3799 11.6054C66.6788 11.0615 65.7721 10.7895 64.66 10.7895C63.4874 10.7895 62.5204 11.0796 61.7588 11.6598C60.9972 12.228 60.4351 13.0017 60.0725 13.9808C59.7098 14.9479 59.5285 16.0237 59.5285 17.2084C59.5285 18.4052 59.7038 19.4931 60.0543 20.4723C60.417 21.4393 60.967 22.207 61.7044 22.7751C62.4418 23.3433 63.3786 23.6273 64.515 23.6273ZM69.4289 27V13.2555H68.8849V0.88909H73.2911V27H69.4289ZM87.0243 27.544C85.066 27.544 83.3555 27.1028 81.8928 26.2203C80.4301 25.3378 79.2938 24.123 78.4838 22.5757C77.686 21.0162 77.2871 19.2272 77.2871 17.2084C77.2871 15.1534 77.6981 13.3522 78.5201 11.8049C79.3421 10.2576 80.4845 9.04875 81.9472 8.17838C83.4099 7.30802 85.1022 6.87284 87.0243 6.87284C88.9947 6.87284 90.7112 7.31407 92.1739 8.19652C93.6366 9.07897 94.7729 10.2999 95.5829 11.8593C96.3928 13.4066 96.7977 15.1896 96.7977 17.2084C96.7977 19.2393 96.3867 21.0344 95.5647 22.5938C94.7548 24.1411 93.6185 25.356 92.1558 26.2384C90.6931 27.1088 88.9826 27.544 87.0243 27.544ZM87.0243 23.446C88.765 23.446 90.0585 22.8658 90.9047 21.7053C91.7508 20.5448 92.1739 19.0458 92.1739 17.2084C92.1739 15.3105 91.7448 13.7995 90.8865 12.6753C90.0282 11.539 88.7408 10.9708 87.0243 10.9708C85.8517 10.9708 84.8846 11.2367 84.1231 11.7686C83.3736 12.2884 82.8175 13.0198 82.4549 13.9627C82.0922 14.8935 81.9109 15.9754 81.9109 17.2084C81.9109 19.1063 82.34 20.6234 83.1983 21.7597C84.0687 22.8839 85.344 23.446 87.0243 23.446Z" fill="#0A2640"/>
</svg>
