<svg width="147" height="38" viewBox="0 0 147 38" fill="none" xmlns="http://www.w3.org/2000/svg">
<g clip-path="url(#clip0_604_1548)">
<g clip-path="url(#clip1_604_1548)">
<path d="M9.54218 3.16594C9.50479 3.0938 9.48198 3.01499 9.47505 2.93403C9.46813 2.85307 9.47722 2.77153 9.50181 2.69409C9.5264 2.61664 9.56602 2.5448 9.61838 2.48266C9.67075 2.42053 9.73484 2.36932 9.807 2.33196C12.0213 1.20598 14.4809 0.648742 16.9643 0.710499C19.4476 0.772256 21.8765 1.45106 24.0321 2.68572C24.1028 2.72638 24.1647 2.78063 24.2143 2.84536C24.264 2.91008 24.3003 2.98399 24.3212 3.06282C24.3422 3.14166 24.3473 3.22385 24.3363 3.30467C24.3253 3.38548 24.2984 3.46332 24.2571 3.53369L17.136 15.755C17.0817 15.8486 17.0037 15.9262 16.9099 15.9801C16.816 16.0341 16.7097 16.0623 16.6014 16.0622H16.5857C16.4749 16.0592 16.3668 16.0266 16.2728 15.9678C16.1788 15.909 16.1023 15.8261 16.0511 15.7277L9.54218 3.16594ZM16.2194 19.3215V19.3203L9.71027 6.75849C9.63467 6.61306 9.50461 6.50345 9.34847 6.45358C9.19234 6.4037 9.02281 6.41763 8.87691 6.49231C7.14214 7.38181 5.60011 8.60516 4.33934 10.0921C3.07856 11.5791 2.12386 13.3004 1.53002 15.1573C0.936183 17.0142 0.714905 18.9701 0.878887 20.9127C1.04287 22.8553 1.58888 24.7464 2.48559 26.4775C3.38229 28.2085 4.61204 29.7455 6.10423 31C7.59643 32.2546 9.32171 33.2022 11.181 33.7883C13.0404 34.3744 14.9972 34.5875 16.9391 34.4155C18.881 34.2434 20.7698 33.6896 22.4971 32.7857C22.6422 32.7097 22.7514 32.5794 22.8008 32.4233C22.8502 32.2672 22.8358 32.0978 22.7608 31.9522L16.2194 19.3215ZM23.8495 31.195L23.899 31.2941C23.9738 31.4402 24.1027 31.5513 24.2582 31.6038C24.322 31.6249 24.3894 31.6333 24.4564 31.6285C24.5544 31.6258 24.651 31.6048 24.7413 31.5666C24.9668 31.4549 25.1859 31.3308 25.3978 31.195C26.0278 30.8295 26.6283 30.4154 27.1938 29.9564H23.2054L23.8495 31.195ZM22.5613 28.7177H28.5439C28.9286 28.3312 29.2846 27.9173 29.6092 27.4791H21.9172L22.5613 28.7177ZM21.2855 26.2405H30.4886C30.7423 25.8428 30.9699 25.429 31.1698 25.0018H20.6414L21.2855 26.2405ZM19.9973 23.7632H31.7148C31.8792 23.3588 32.0198 22.9453 32.136 22.5245H19.3532L19.9973 23.7632ZM18.7091 21.2859H32.4456C32.52 20.8771 32.5819 20.4684 32.6191 20.0473H18.0774L18.7091 21.2859ZM25.3482 5.62947C25.2787 5.58624 25.2008 5.55835 25.1196 5.54767C25.0384 5.53699 24.9559 5.54377 24.8776 5.56754C24.7973 5.58586 24.7218 5.62065 24.6557 5.66968C24.5896 5.71872 24.5344 5.78095 24.4936 5.85243L24.1591 6.4222H26.5497C26.1637 6.13666 25.7626 5.87204 25.3482 5.62947ZM28.0485 7.66084H23.4407L22.7223 8.89948H29.2252C28.8587 8.46287 28.4657 8.04921 28.0485 7.66084ZM30.1542 10.1381H21.9915L21.2731 11.3768H30.9097C30.6862 10.9472 30.4338 10.5334 30.1542 10.1381ZM31.5043 12.6154H20.5547L19.8363 13.854H31.9874C31.8501 13.4323 31.6888 13.0187 31.5043 12.6154ZM32.3342 15.0927H19.1055L18.3871 16.3313H32.5571C32.5079 15.9143 32.4335 15.5007 32.3342 15.0927ZM32.681 17.57H17.6687L17.3714 18.0778C17.3177 18.1673 17.2883 18.2692 17.2862 18.3734C17.284 18.4777 17.3091 18.5808 17.359 18.6724L17.4333 18.8086H32.7058C32.7181 18.6847 32.7181 18.5485 32.7181 18.4246C32.7181 18.1397 32.7058 17.8549 32.681 17.57Z" fill="#0A2640"/>
<path d="M9.25769 5.88004C9.03065 5.44981 8.49627 5.28302 8.07944 5.5338C4.77956 7.51916 2.31417 10.6551 1.17076 14.3539C-0.0596078 18.3341 0.341518 22.6399 2.2859 26.3243C4.23028 30.0087 7.55863 32.7698 11.5388 34.0002C15.2376 35.1436 19.2178 34.8779 22.719 33.2741C23.1612 33.0715 23.3251 32.5363 23.0981 32.106L16.1779 18.993L9.25769 5.88004Z" fill="#0A2640"/>
</g>
<path d="M54.8185 6.96001C56.5399 6.96001 58.0063 7.23629 59.2177 7.78886C60.4291 8.34142 61.3536 9.13839 61.9912 10.1798C62.6288 11.2211 62.9475 12.4857 62.9475 13.9733C62.9475 15.461 62.6288 16.7255 61.9912 17.7669C61.3536 18.8083 60.4291 19.6053 59.2177 20.1578C58.0063 20.7104 56.5399 20.9867 54.8185 20.9867H50.6423V28H45.1592V6.96001H54.8185ZM53.9577 16.8743C55.1054 16.8743 55.9661 16.6405 56.5399 16.173C57.135 15.6842 57.4325 14.951 57.4325 13.9733C57.4325 12.9957 57.135 12.2731 56.5399 11.8056C55.9661 11.3168 55.1054 11.0724 53.9577 11.0724H50.6423V16.8743H53.9577ZM66.0707 28V12.0606H70.8525L71.0756 15.5035C71.4794 14.3134 72.0745 13.3889 72.8608 12.7301C73.6684 12.0712 74.6886 11.7418 75.9212 11.7418C76.325 11.7418 76.665 11.7737 76.9413 11.8375C77.2389 11.9012 77.4726 11.9862 77.6427 12.0925L77.1007 16.5555C76.8882 16.4705 76.6119 16.4068 76.2719 16.3642C75.9531 16.3005 75.5599 16.2686 75.0924 16.2686C74.4548 16.2686 73.8597 16.4068 73.3071 16.683C72.7546 16.9593 72.3083 17.3737 71.9682 17.9263C71.6494 18.4576 71.4901 19.1377 71.4901 19.9665V28H66.0707ZM87.3602 28.3188C85.5962 28.3188 84.0661 27.9894 82.7697 27.3305C81.4945 26.6717 80.5063 25.726 79.8049 24.4933C79.1036 23.2607 78.7529 21.773 78.7529 20.0303C78.7529 18.2876 79.1036 16.7999 79.8049 15.5673C80.5063 14.3346 81.4839 13.3889 82.7378 12.7301C84.0129 12.0712 85.4687 11.7418 87.1052 11.7418C88.7841 11.7418 90.208 12.0712 91.3769 12.7301C92.5671 13.3676 93.4703 14.2602 94.0866 15.4079C94.7029 16.5343 95.0111 17.8307 95.0111 19.2971C95.0111 19.6796 95.0005 20.0622 94.9792 20.4447C94.958 20.8273 94.9261 21.1461 94.8836 21.4011H82.2596V18.5001H92.4927L89.9105 19.4884C89.9105 18.2132 89.6767 17.2356 89.2092 16.5555C88.7629 15.8754 88.0615 15.5354 87.1052 15.5354C86.4251 15.5354 85.8406 15.6948 85.3518 16.0136C84.8843 16.3324 84.523 16.8318 84.268 17.5119C84.0342 18.192 83.9173 19.0633 83.9173 20.1259C83.9173 21.1673 84.0554 22.0174 84.3317 22.6762C84.608 23.3138 85.0012 23.7814 85.5112 24.0789C86.0213 24.3552 86.6376 24.4933 87.3602 24.4933C88.1678 24.4933 88.8054 24.3339 89.2729 24.0152C89.7617 23.6964 90.123 23.2501 90.3568 22.6762L94.6923 24.1108C94.3948 25.0246 93.8741 25.8004 93.1303 26.4379C92.4077 27.0543 91.5363 27.5218 90.5162 27.8406C89.5173 28.1594 88.4653 28.3188 87.3602 28.3188ZM104.737 28.3188C103.143 28.3188 101.656 28.0638 100.274 27.5537C98.9142 27.0224 97.7878 26.2679 96.8952 25.2903L99.4455 22.2937C99.9768 22.9738 100.678 23.5476 101.549 24.0152C102.442 24.4615 103.43 24.6846 104.514 24.6846C105.173 24.6846 105.715 24.589 106.14 24.3977C106.565 24.2064 106.778 23.9089 106.778 23.5051C106.778 23.2076 106.671 22.9738 106.459 22.8038C106.246 22.6125 105.821 22.4531 105.184 22.3256L102.952 21.8793C100.954 21.4755 99.5305 20.8804 98.6804 20.0941C97.8516 19.2865 97.4371 18.2345 97.4371 16.9381C97.4371 16.0667 97.7028 15.2379 98.2341 14.4515C98.7654 13.6439 99.5836 12.9957 100.689 12.5069C101.794 11.9969 103.207 11.7418 104.929 11.7418C106.544 11.7418 107.968 11.9756 109.2 12.4432C110.433 12.9107 111.411 13.5908 112.133 14.4834L109.551 17.4162C109.041 16.7787 108.382 16.2792 107.575 15.9179C106.767 15.5567 105.959 15.376 105.152 15.376C104.642 15.376 104.206 15.4291 103.845 15.5354C103.505 15.6204 103.25 15.7479 103.08 15.9179C102.91 16.088 102.825 16.3005 102.825 16.5555C102.825 16.8318 102.952 17.0762 103.207 17.2887C103.483 17.48 103.983 17.65 104.705 17.7988L107.606 18.3726C109.243 18.6701 110.422 19.2121 111.145 19.9984C111.868 20.7848 112.229 21.7305 112.229 22.8356C112.229 23.877 111.953 24.8121 111.4 25.641C110.847 26.4698 110.019 27.1286 108.913 27.6175C107.808 28.085 106.416 28.3188 104.737 28.3188ZM121.703 6.99189V22.3256C121.703 23.0907 121.884 23.6432 122.245 23.9833C122.628 24.3021 123.149 24.4615 123.807 24.4615C124.317 24.4615 124.753 24.4083 125.114 24.3021C125.497 24.1745 125.837 23.9939 126.135 23.7601L126.708 27.1074C126.177 27.4899 125.508 27.7875 124.7 28C123.892 28.2125 123.064 28.3188 122.213 28.3188C121.002 28.3188 119.95 28.1488 119.057 27.8087C118.186 27.4687 117.506 26.9267 117.017 26.1829C116.55 25.4391 116.305 24.4508 116.284 23.2182V8.49019L121.703 6.99189ZM126.453 12.0606V15.9179H113.542V12.0606H126.453ZM136.544 11.7418C138.223 11.7418 139.689 12.0712 140.943 12.7301C142.218 13.3676 143.206 14.3134 143.908 15.5673C144.63 16.7999 144.992 18.2876 144.992 20.0303C144.992 21.773 144.63 23.2713 143.908 24.5252C143.206 25.7579 142.218 26.7036 140.943 27.3624C139.689 28 138.223 28.3188 136.544 28.3188C134.907 28.3188 133.451 28 132.176 27.3624C130.901 26.7036 129.902 25.7579 129.18 24.5252C128.478 23.2713 128.128 21.773 128.128 20.0303C128.128 18.2876 128.478 16.7999 129.18 15.5673C129.902 14.3134 130.901 13.3676 132.176 12.7301C133.451 12.0712 134.907 11.7418 136.544 11.7418ZM136.544 15.5992C135.927 15.5992 135.396 15.7479 134.95 16.0455C134.503 16.343 134.163 16.8212 133.93 17.48C133.696 18.1388 133.579 18.9889 133.579 20.0303C133.579 21.0717 133.696 21.9218 133.93 22.5806C134.163 23.2182 134.503 23.6964 134.95 24.0152C135.396 24.3127 135.927 24.4615 136.544 24.4615C137.181 24.4615 137.723 24.3127 138.169 24.0152C138.616 23.6964 138.956 23.2182 139.19 22.5806C139.423 21.9218 139.54 21.0717 139.54 20.0303C139.54 18.9889 139.423 18.1388 139.19 17.48C138.956 16.8212 138.616 16.343 138.169 16.0455C137.723 15.7479 137.181 15.5992 136.544 15.5992Z" fill="#0A2640"/>
</g>
<defs>
<clipPath id="clip0_604_1548">
<rect width="146.382" height="42" fill="white" transform="translate(0.382324 -4)"/>
</clipPath>
<clipPath id="clip1_604_1548">
<rect width="32.745" height="34.8351" fill="white" transform="translate(0.191162 0.153809)"/>
</clipPath>
</defs>
</svg>
